<?xml version="1.0" standalone="no"?>
<!DOCTYPE svg PUBLIC "-//W3C//DTD SVG 1.1//EN" "http://www.w3.org/Graphics/SVG/1.1/DTD/svg11.dtd">
<svg width="170mm" height="150mm" viewBox="-85 -75 170 150" xmlns="http://www.w3.org/2000/svg" version="1.1">
<title>OpenSCAD Model</title>
<path d="
M 85,-75 L -85,-75 L -85,75 L 85,75 z
M 79.7821,-67.5095 L 79.5659,-67.538 L 79.353,-67.5852 L 79.1449,-67.6508 L 78.9435,-67.7342 L 78.75,-67.8349
 L 78.5661,-67.9521 L 78.393,-68.0849 L 78.2322,-68.2322 L 78.0849,-68.393 L 77.9521,-68.5661 L 77.8349,-68.75
 L 77.7342,-68.9435 L 77.6508,-69.1449 L 77.5852,-69.353 L 77.538,-69.5659 L 77.5095,-69.7821 L 77.5,-70
 L 77.5095,-70.2179 L 77.538,-70.4341 L 77.5852,-70.647 L 77.6508,-70.855 L 77.7342,-71.0565 L 77.8349,-71.25
 L 77.9521,-71.4339 L 78.0849,-71.607 L 78.2322,-71.7678 L 78.393,-71.9151 L 78.5661,-72.0479 L 78.75,-72.1651
 L 78.9435,-72.2658 L 79.1449,-72.3492 L 79.353,-72.4148 L 79.5659,-72.462 L 79.7821,-72.4905 L 80,-72.5
 L 80.2179,-72.4905 L 80.4341,-72.462 L 80.647,-72.4148 L 80.855,-72.3492 L 81.0565,-72.2658 L 81.25,-72.1651
 L 81.4339,-72.0479 L 81.607,-71.9151 L 81.7678,-71.7678 L 81.9151,-71.607 L 82.0479,-71.4339 L 82.1651,-71.25
 L 82.2658,-71.0565 L 82.3492,-70.855 L 82.4148,-70.647 L 82.462,-70.4341 L 82.4905,-70.2179 L 82.5,-70
 L 82.4905,-69.7821 L 82.462,-69.5659 L 82.4148,-69.353 L 82.3492,-69.1449 L 82.2658,-68.9435 L 82.1651,-68.75
 L 82.0479,-68.5661 L 81.9151,-68.393 L 81.7678,-68.2322 L 81.607,-68.0849 L 81.4339,-67.9521 L 81.25,-67.8349
 L 81.0565,-67.7342 L 80.855,-67.6508 L 80.647,-67.5852 L 80.4341,-67.538 L 80.2179,-67.5095 L 80,-67.5
 z
M -80.2179,-67.5095 L -80.4341,-67.538 L -80.647,-67.5852 L -80.855,-67.6508 L -81.0565,-67.7342 L -81.25,-67.8349
 L -81.4339,-67.9521 L -81.607,-68.0849 L -81.7678,-68.2322 L -81.9151,-68.393 L -82.0479,-68.5661 L -82.1651,-68.75
 L -82.2658,-68.9435 L -82.3492,-69.1449 L -82.4148,-69.353 L -82.462,-69.5659 L -82.4905,-69.7821 L -82.5,-70
 L -82.4905,-70.2179 L -82.462,-70.4341 L -82.4148,-70.647 L -82.3492,-70.855 L -82.2658,-71.0565 L -82.1651,-71.25
 L -82.0479,-71.4339 L -81.9151,-71.607 L -81.7678,-71.7678 L -81.607,-71.9151 L -81.4339,-72.0479 L -81.25,-72.1651
 L -81.0565,-72.2658 L -80.855,-72.3492 L -80.647,-72.4148 L -80.4341,-72.462 L -80.2179,-72.4905 L -80,-72.5
 L -79.7821,-72.4905 L -79.5659,-72.462 L -79.353,-72.4148 L -79.1449,-72.3492 L -78.9435,-72.2658 L -78.75,-72.1651
 L -78.5661,-72.0479 L -78.393,-71.9151 L -78.2322,-71.7678 L -78.0849,-71.607 L -77.9521,-71.4339 L -77.8349,-71.25
 L -77.7342,-71.0565 L -77.6508,-70.855 L -77.5852,-70.647 L -77.538,-70.4341 L -77.5095,-70.2179 L -77.5,-70
 L -77.5095,-69.7821 L -77.538,-69.5659 L -77.5852,-69.353 L -77.6508,-69.1449 L -77.7342,-68.9435 L -77.8349,-68.75
 L -77.9521,-68.5661 L -78.0849,-68.393 L -78.2322,-68.2322 L -78.393,-68.0849 L -78.5661,-67.9521 L -78.75,-67.8349
 L -78.9435,-67.7342 L -79.1449,-67.6508 L -79.353,-67.5852 L -79.5659,-67.538 L -79.7821,-67.5095 L -80,-67.5
 z
M -38.5,51 L -38.5,-51 L -37.5,-51 L -37.5,51 z
M -35.5,-50 L -35.5,-51 L 35.5,-51 L 35.5,-50 z
M 38.5,-51 L 38.5,51 L 37.5,51 L 37.5,-51 z
M -0.139435,-45.4061 L -0.277832,-45.4243 L -0.414108,-45.4545 L -0.547226,-45.4965 L -0.676178,-45.5499 L -0.799988,-45.6143
 L -0.917709,-45.6893 L -1.02846,-45.7743 L -1.13136,-45.8686 L -1.22566,-45.9715 L -1.31064,-46.0823 L -1.38564,-46.2
 L -1.45009,-46.3238 L -1.50349,-46.4528 L -1.54547,-46.5859 L -1.57568,-46.7222 L -1.5939,-46.8605 L -1.59999,-47
 L -1.5939,-47.1394 L -1.57568,-47.2778 L -1.54547,-47.4141 L -1.50349,-47.5472 L -1.45009,-47.6762 L -1.38564,-47.8
 L -1.31064,-47.9177 L -1.22566,-48.0285 L -1.13136,-48.1314 L -1.02846,-48.2257 L -0.917709,-48.3106 L -0.799988,-48.3856
 L -0.676178,-48.4501 L -0.547226,-48.5035 L -0.414108,-48.5455 L -0.277832,-48.5757 L -0.139435,-48.5939 L 0,-48.6
 L 0.139435,-48.5939 L 0.277832,-48.5757 L 0.414108,-48.5455 L 0.547226,-48.5035 L 0.676178,-48.4501 L 0.799988,-48.3856
 L 0.917709,-48.3106 L 1.02846,-48.2257 L 1.13136,-48.1314 L 1.22566,-48.0285 L 1.31064,-47.9177 L 1.38564,-47.8
 L 1.45009,-47.6762 L 1.50349,-47.5472 L 1.54547,-47.4141 L 1.57568,-47.2778 L 1.5939,-47.1394 L 1.59999,-47
 L 1.5939,-46.8605 L 1.57568,-46.7222 L 1.54547,-46.5859 L 1.50349,-46.4528 L 1.45009,-46.3238 L 1.38564,-46.2
 L 1.31064,-46.0823 L 1.22566,-45.9715 L 1.13136,-45.8686 L 1.02846,-45.7743 L 0.917709,-45.6893 L 0.799988,-45.6143
 L 0.676178,-45.5499 L 0.547226,-45.4965 L 0.414108,-45.4545 L 0.277832,-45.4243 L 0.139435,-45.4061 L 0,-45.4
 z
M -33.5871,-45.0038 L -33.6736,-45.0152 L -33.7588,-45.0341 L -33.842,-45.0603 L -33.9226,-45.0937 L -34,-45.134
 L -34.0736,-45.1808 L -34.1428,-45.2339 L -34.2071,-45.2929 L -34.266,-45.3572 L -34.3191,-45.4264 L -34.366,-45.5
 L -34.4063,-45.5774 L -34.4397,-45.658 L -34.4659,-45.7412 L -34.4848,-45.8263 L -34.4962,-45.9128 L -34.5,-46
 L -34.4962,-46.0871 L -34.4848,-46.1736 L -34.4659,-46.2588 L -34.4397,-46.342 L -34.4063,-46.4226 L -34.366,-46.5
 L -34.3191,-46.5736 L -34.266,-46.6428 L -34.2071,-46.7071 L -34.1428,-46.766 L -34.0736,-46.8191 L -34,-46.866
 L -33.9226,-46.9063 L -33.842,-46.9397 L -33.7588,-46.9659 L -33.6736,-46.9848 L -33.5871,-46.9962 L -33.5,-47
 L -33.4128,-46.9962 L -33.3263,-46.9848 L -33.2412,-46.9659 L -33.158,-46.9397 L -33.0774,-46.9063 L -33,-46.866
 L -32.9264,-46.8191 L -32.8572,-46.766 L -32.7929,-46.7071 L -32.7339,-46.6428 L -32.6808,-46.5736 L -32.634,-46.5
 L -32.5937,-46.4226 L -32.5603,-46.342 L -32.5341,-46.2588 L -32.5152,-46.1736 L -32.5038,-46.0871 L -32.5,-46
 L -32.5038,-45.9128 L -32.5152,-45.8263 L -32.5341,-45.7412 L -32.5603,-45.658 L -32.5937,-45.5774 L -32.634,-45.5
 L -32.6808,-45.4264 L -32.7339,-45.3572 L -32.7929,-45.2929 L -32.8572,-45.2339 L -32.9264,-45.1808 L -33,-45.134
 L -33.0774,-45.0937 L -33.158,-45.0603 L -33.2412,-45.0341 L -33.3263,-45.0152 L -33.4128,-45.0038 L -33.5,-45
 z
M 33.4128,-45.0038 L 33.3263,-45.0152 L 33.2412,-45.0341 L 33.158,-45.0603 L 33.0774,-45.0937 L 33,-45.134
 L 32.9264,-45.1808 L 32.8572,-45.2339 L 32.7929,-45.2929 L 32.7339,-45.3572 L 32.6808,-45.4264 L 32.634,-45.5
 L 32.5937,-45.5774 L 32.5603,-45.658 L 32.5341,-45.7412 L 32.5152,-45.8263 L 32.5038,-45.9128 L 32.5,-46
 L 32.5038,-46.0871 L 32.5152,-46.1736 L 32.5341,-46.2588 L 32.5603,-46.342 L 32.5937,-46.4226 L 32.634,-46.5
 L 32.6808,-46.5736 L 32.7339,-46.6428 L 32.7929,-46.7071 L 32.8572,-46.766 L 32.9264,-46.8191 L 33,-46.866
 L 33.0774,-46.9063 L 33.158,-46.9397 L 33.2412,-46.9659 L 33.3263,-46.9848 L 33.4128,-46.9962 L 33.5,-47
 L 33.5871,-46.9962 L 33.6736,-46.9848 L 33.7588,-46.9659 L 33.842,-46.9397 L 33.9226,-46.9063 L 34,-46.866
 L 34.0736,-46.8191 L 34.1428,-46.766 L 34.2071,-46.7071 L 34.266,-46.6428 L 34.3191,-46.5736 L 34.366,-46.5
 L 34.4063,-46.4226 L 34.4397,-46.342 L 34.4659,-46.2588 L 34.4848,-46.1736 L 34.4962,-46.0871 L 34.5,-46
 L 34.4962,-45.9128 L 34.4848,-45.8263 L 34.4659,-45.7412 L 34.4397,-45.658 L 34.4063,-45.5774 L 34.366,-45.5
 L 34.3191,-45.4264 L 34.266,-45.3572 L 34.2071,-45.2929 L 34.1428,-45.2339 L 34.0736,-45.1808 L 34,-45.134
 L 33.9226,-45.0937 L 33.842,-45.0603 L 33.7588,-45.0341 L 33.6736,-45.0152 L 33.5871,-45.0038 L 33.5,-45
 z
M 79.8693,-38.5057 L 79.7395,-38.5228 L 79.6118,-38.5511 L 79.487,-38.5905 L 79.3661,-38.6405 L 79.25,-38.701
 L 79.1396,-38.7713 L 79.0358,-38.8509 L 78.9393,-38.9393 L 78.8509,-39.0358 L 78.7713,-39.1396 L 78.701,-39.25
 L 78.6405,-39.3661 L 78.5905,-39.487 L 78.5511,-39.6118 L 78.5228,-39.7395 L 78.5057,-39.8693 L 78.5,-40
 L 78.5057,-40.1307 L 78.5228,-40.2605 L 78.5511,-40.3882 L 78.5905,-40.513 L 78.6405,-40.6339 L 78.701,-40.75
 L 78.7713,-40.8604 L 78.8509,-40.9642 L 78.9393,-41.0607 L 79.0358,-41.1491 L 79.1396,-41.2287 L 79.25,-41.299
 L 79.3661,-41.3595 L 79.487,-41.4095 L 79.6118,-41.4489 L 79.7395,-41.4772 L 79.8693,-41.4943 L 80,-41.5
 L 80.1307,-41.4943 L 80.2605,-41.4772 L 80.3882,-41.4489 L 80.513,-41.4095 L 80.6339,-41.3595 L 80.75,-41.299
 L 80.8604,-41.2287 L 80.9642,-41.1491 L 81.0607,-41.0607 L 81.1491,-40.9642 L 81.2287,-40.8604 L 81.299,-40.75
 L 81.3595,-40.6339 L 81.4095,-40.513 L 81.4489,-40.3882 L 81.4772,-40.2605 L 81.4943,-40.1307 L 81.5,-40
 L 81.4943,-39.8693 L 81.4772,-39.7395 L 81.4489,-39.6118 L 81.4095,-39.487 L 81.3595,-39.3661 L 81.299,-39.25
 L 81.2287,-39.1396 L 81.1491,-39.0358 L 81.0607,-38.9393 L 80.9642,-38.8509 L 80.8604,-38.7713 L 80.75,-38.701
 L 80.6339,-38.6405 L 80.513,-38.5905 L 80.3882,-38.5511 L 80.2605,-38.5228 L 80.1307,-38.5057 L 80,-38.5
 z
M -80.1307,-38.5057 L -80.2605,-38.5228 L -80.3882,-38.5511 L -80.513,-38.5905 L -80.6339,-38.6405 L -80.75,-38.701
 L -80.8604,-38.7713 L -80.9642,-38.8509 L -81.0607,-38.9393 L -81.1491,-39.0358 L -81.2287,-39.1396 L -81.299,-39.25
 L -81.3595,-39.3661 L -81.4095,-39.487 L -81.4489,-39.6118 L -81.4772,-39.7395 L -81.4943,-39.8693 L -81.5,-40
 L -81.4943,-40.1307 L -81.4772,-40.2605 L -81.4489,-40.3882 L -81.4095,-40.513 L -81.3595,-40.6339 L -81.299,-40.75
 L -81.2287,-40.8604 L -81.1491,-40.9642 L -81.0607,-41.0607 L -80.9642,-41.1491 L -80.8604,-41.2287 L -80.75,-41.299
 L -80.6339,-41.3595 L -80.513,-41.4095 L -80.3882,-41.4489 L -80.2605,-41.4772 L -80.1307,-41.4943 L -80,-41.5
 L -79.8693,-41.4943 L -79.7395,-41.4772 L -79.6118,-41.4489 L -79.487,-41.4095 L -79.3661,-41.3595 L -79.25,-41.299
 L -79.1396,-41.2287 L -79.0358,-41.1491 L -78.9393,-41.0607 L -78.8509,-40.9642 L -78.7713,-40.8604 L -78.701,-40.75
 L -78.6405,-40.6339 L -78.5905,-40.513 L -78.5511,-40.3882 L -78.5228,-40.2605 L -78.5057,-40.1307 L -78.5,-40
 L -78.5057,-39.8693 L -78.5228,-39.7395 L -78.5511,-39.6118 L -78.5905,-39.487 L -78.6405,-39.3661 L -78.701,-39.25
 L -78.7713,-39.1396 L -78.8509,-39.0358 L -78.9393,-38.9393 L -79.0358,-38.8509 L -79.1396,-38.7713 L -79.25,-38.701
 L -79.3661,-38.6405 L -79.487,-38.5905 L -79.6118,-38.5511 L -79.7395,-38.5228 L -79.8693,-38.5057 L -80,-38.5
 z
M 34.4128,-36.0038 L 34.3263,-36.0152 L 34.2412,-36.0341 L 34.158,-36.0603 L 34.0774,-36.0937 L 34,-36.134
 L 33.9264,-36.1808 L 33.8572,-36.2339 L 33.7929,-36.2929 L 33.7339,-36.3572 L 33.6808,-36.4264 L 33.634,-36.5
 L 33.5937,-36.5774 L 33.5603,-36.658 L 33.5341,-36.7412 L 33.5152,-36.8263 L 33.5038,-36.9128 L 33.5,-37
 L 33.5038,-37.0871 L 33.5152,-37.1736 L 33.5341,-37.2588 L 33.5603,-37.342 L 33.5937,-37.4226 L 33.634,-37.5
 L 33.6808,-37.5736 L 33.7339,-37.6428 L 33.7929,-37.7071 L 33.8572,-37.766 L 33.9264,-37.8191 L 34,-37.866
 L 34.0774,-37.9063 L 34.158,-37.9397 L 34.2412,-37.9659 L 34.3263,-37.9848 L 34.4128,-37.9962 L 34.5,-38
 L 34.5871,-37.9962 L 34.6736,-37.9848 L 34.7588,-37.9659 L 34.842,-37.9397 L 34.9226,-37.9063 L 35,-37.866
 L 35.0736,-37.8191 L 35.1428,-37.766 L 35.2071,-37.7071 L 35.266,-37.6428 L 35.3191,-37.5736 L 35.366,-37.5
 L 35.4063,-37.4226 L 35.4397,-37.342 L 35.4659,-37.2588 L 35.4848,-37.1736 L 35.4962,-37.0871 L 35.5,-37
 L 35.4962,-36.9128 L 35.4848,-36.8263 L 35.4659,-36.7412 L 35.4397,-36.658 L 35.4063,-36.5774 L 35.366,-36.5
 L 35.3191,-36.4264 L 35.266,-36.3572 L 35.2071,-36.2929 L 35.1428,-36.2339 L 35.0736,-36.1808 L 35,-36.134
 L 34.9226,-36.0937 L 34.842,-36.0603 L 34.7588,-36.0341 L 34.6736,-36.0152 L 34.5871,-36.0038 L 34.5,-36
 z
M -34.5871,-36.0038 L -34.6736,-36.0152 L -34.7588,-36.0341 L -34.842,-36.0603 L -34.9226,-36.0937 L -35,-36.134
 L -35.0736,-36.1808 L -35.1428,-36.2339 L -35.2071,-36.2929 L -35.266,-36.3572 L -35.3191,-36.4264 L -35.366,-36.5
 L -35.4063,-36.5774 L -35.4397,-36.658 L -35.4659,-36.7412 L -35.4848,-36.8263 L -35.4962,-36.9128 L -35.5,-37
 L -35.4962,-37.0871 L -35.4848,-37.1736 L -35.4659,-37.2588 L -35.4397,-37.342 L -35.4063,-37.4226 L -35.366,-37.5
 L -35.3191,-37.5736 L -35.266,-37.6428 L -35.2071,-37.7071 L -35.1428,-37.766 L -35.0736,-37.8191 L -35,-37.866
 L -34.9226,-37.9063 L -34.842,-37.9397 L -34.7588,-37.9659 L -34.6736,-37.9848 L -34.5871,-37.9962 L -34.5,-38
 L -34.4128,-37.9962 L -34.3263,-37.9848 L -34.2412,-37.9659 L -34.158,-37.9397 L -34.0774,-37.9063 L -34,-37.866
 L -33.9264,-37.8191 L -33.8572,-37.766 L -33.7929,-37.7071 L -33.7339,-37.6428 L -33.6808,-37.5736 L -33.634,-37.5
 L -33.5937,-37.4226 L -33.5603,-37.342 L -33.5341,-37.2588 L -33.5152,-37.1736 L -33.5038,-37.0871 L -33.5,-37
 L -33.5038,-36.9128 L -33.5152,-36.8263 L -33.5341,-36.7412 L -33.5603,-36.658 L -33.5937,-36.5774 L -33.634,-36.5
 L -33.6808,-36.4264 L -33.7339,-36.3572 L -33.7929,-36.2929 L -33.8572,-36.2339 L -33.9264,-36.1808 L -34,-36.134
 L -34.0774,-36.0937 L -34.158,-36.0603 L -34.2412,-36.0341 L -34.3263,-36.0152 L -34.4128,-36.0038 L -34.5,-36
 z
M -40.5871,-24.4038 L -40.6736,-24.4152 L -40.7588,-24.4341 L -40.842,-24.4603 L -40.9226,-24.4937 L -41,-24.534
 L -41.0736,-24.5808 L -41.1428,-24.6339 L -41.2071,-24.6929 L -41.266,-24.7572 L -41.3191,-24.8264 L -41.366,-24.9
 L -41.4063,-24.9774 L -41.4397,-25.058 L -41.4659,-25.1412 L -41.4848,-25.2263 L -41.4962,-25.3128 L -41.5,-25.4
 L -41.4962,-25.4872 L -41.4848,-25.5736 L -41.4659,-25.6588 L -41.4397,-25.742 L -41.4063,-25.8226 L -41.366,-25.9
 L -41.3191,-25.9736 L -41.266,-26.0428 L -41.2071,-26.1071 L -41.1428,-26.166 L -41.0736,-26.2191 L -41,-26.266
 L -40.9226,-26.3063 L -40.842,-26.3397 L -40.7588,-26.3659 L -40.6736,-26.3848 L -40.5871,-26.3962 L -40.5,-26.4
 L -40.4128,-26.3962 L -40.3263,-26.3848 L -40.2412,-26.3659 L -40.158,-26.3397 L -40.0774,-26.3063 L -40,-26.266
 L -39.9264,-26.2191 L -39.8572,-26.166 L -39.7929,-26.1071 L -39.7339,-26.0428 L -39.6808,-25.9736 L -39.634,-25.9
 L -39.5937,-25.8226 L -39.5603,-25.742 L -39.5341,-25.6588 L -39.5152,-25.5736 L -39.5038,-25.4872 L -39.5,-25.4
 L -39.5038,-25.3128 L -39.5152,-25.2263 L -39.5341,-25.1412 L -39.5603,-25.058 L -39.5937,-24.9774 L -39.634,-24.9
 L -39.6808,-24.8264 L -39.7339,-24.7572 L -39.7929,-24.6929 L -39.8572,-24.6339 L -39.9264,-24.5808 L -40,-24.534
 L -40.0774,-24.4937 L -40.158,-24.4603 L -40.2412,-24.4341 L -40.3263,-24.4152 L -40.4128,-24.4038 L -40.5,-24.4
 z
M 40.4128,-24.4038 L 40.3263,-24.4152 L 40.2412,-24.4341 L 40.158,-24.4603 L 40.0774,-24.4937 L 40,-24.534
 L 39.9264,-24.5808 L 39.8572,-24.6339 L 39.7929,-24.6929 L 39.7339,-24.7572 L 39.6808,-24.8264 L 39.634,-24.9
 L 39.5937,-24.9774 L 39.5603,-25.058 L 39.5341,-25.1412 L 39.5152,-25.2263 L 39.5038,-25.3128 L 39.5,-25.4
 L 39.5038,-25.4872 L 39.5152,-25.5736 L 39.5341,-25.6588 L 39.5603,-25.742 L 39.5937,-25.8226 L 39.634,-25.9
 L 39.6808,-25.9736 L 39.7339,-26.0428 L 39.7929,-26.1071 L 39.8572,-26.166 L 39.9264,-26.2191 L 40,-26.266
 L 40.0774,-26.3063 L 40.158,-26.3397 L 40.2412,-26.3659 L 40.3263,-26.3848 L 40.4128,-26.3962 L 40.5,-26.4
 L 40.5871,-26.3962 L 40.6736,-26.3848 L 40.7588,-26.3659 L 40.842,-26.3397 L 40.9226,-26.3063 L 41,-26.266
 L 41.0736,-26.2191 L 41.1428,-26.166 L 41.2071,-26.1071 L 41.266,-26.0428 L 41.3191,-25.9736 L 41.366,-25.9
 L 41.4063,-25.8226 L 41.4397,-25.742 L 41.4659,-25.6588 L 41.4848,-25.5736 L 41.4962,-25.4872 L 41.5,-25.4
 L 41.4962,-25.3128 L 41.4848,-25.2263 L 41.4659,-25.1412 L 41.4397,-25.058 L 41.4063,-24.9774 L 41.366,-24.9
 L 41.3191,-24.8264 L 41.266,-24.7572 L 41.2071,-24.6929 L 41.1428,-24.6339 L 41.0736,-24.5808 L 41,-24.534
 L 40.9226,-24.4937 L 40.842,-24.4603 L 40.7588,-24.4341 L 40.6736,-24.4152 L 40.5871,-24.4038 L 40.5,-24.4
 z
M -34.6394,1.5939 L -34.7778,1.57568 L -34.9141,1.54547 L -35.0472,1.50349 L -35.1762,1.45009 L -35.3,1.38564
 L -35.4177,1.31064 L -35.5285,1.22566 L -35.6314,1.13136 L -35.7257,1.02846 L -35.8106,0.917709 L -35.8856,0.799988
 L -35.9501,0.676178 L -36.0035,0.547226 L -36.0455,0.414108 L -36.0757,0.277832 L -36.0939,0.139435 L -36.1,-0
 L -36.0939,-0.139435 L -36.0757,-0.277832 L -36.0455,-0.414108 L -36.0035,-0.547226 L -35.9501,-0.676178 L -35.8856,-0.799988
 L -35.8106,-0.917709 L -35.7257,-1.02846 L -35.6314,-1.13136 L -35.5285,-1.22566 L -35.4177,-1.31064 L -35.3,-1.38564
 L -35.1762,-1.45009 L -35.0472,-1.50349 L -34.9141,-1.54547 L -34.7778,-1.57568 L -34.6394,-1.5939 L -34.5,-1.59999
 L -34.3605,-1.5939 L -34.2222,-1.57568 L -34.0859,-1.54547 L -33.9528,-1.50349 L -33.8238,-1.45009 L -33.7,-1.38564
 L -33.5823,-1.31064 L -33.4715,-1.22566 L -33.3686,-1.13136 L -33.2743,-1.02846 L -33.1893,-0.917709 L -33.1143,-0.799988
 L -33.0499,-0.676178 L -32.9965,-0.547226 L -32.9545,-0.414108 L -32.9243,-0.277832 L -32.9061,-0.139435 L -32.9,-0
 L -32.9061,0.139435 L -32.9243,0.277832 L -32.9545,0.414108 L -32.9965,0.547226 L -33.0499,0.676178 L -33.1143,0.799988
 L -33.1893,0.917709 L -33.2743,1.02846 L -33.3686,1.13136 L -33.4715,1.22566 L -33.5823,1.31064 L -33.7,1.38564
 L -33.8238,1.45009 L -33.9528,1.50349 L -34.0859,1.54547 L -34.2222,1.57568 L -34.3605,1.5939 L -34.5,1.59999
 z
M 34.3605,1.5939 L 34.2222,1.57568 L 34.0859,1.54547 L 33.9528,1.50349 L 33.8238,1.45009 L 33.7,1.38564
 L 33.5823,1.31064 L 33.4715,1.22566 L 33.3686,1.13136 L 33.2743,1.02846 L 33.1893,0.917709 L 33.1143,0.799988
 L 33.0499,0.676178 L 32.9965,0.547226 L 32.9545,0.414108 L 32.9243,0.277832 L 32.9061,0.139435 L 32.9,-0
 L 32.9061,-0.139435 L 32.9243,-0.277832 L 32.9545,-0.414108 L 32.9965,-0.547226 L 33.0499,-0.676178 L 33.1143,-0.799988
 L 33.1893,-0.917709 L 33.2743,-1.02846 L 33.3686,-1.13136 L 33.4715,-1.22566 L 33.5823,-1.31064 L 33.7,-1.38564
 L 33.8238,-1.45009 L 33.9528,-1.50349 L 34.0859,-1.54547 L 34.2222,-1.57568 L 34.3605,-1.5939 L 34.5,-1.59999
 L 34.6394,-1.5939 L 34.7778,-1.57568 L 34.9141,-1.54547 L 35.0472,-1.50349 L 35.1762,-1.45009 L 35.3,-1.38564
 L 35.4177,-1.31064 L 35.5285,-1.22566 L 35.6314,-1.13136 L 35.7257,-1.02846 L 35.8106,-0.917709 L 35.8856,-0.799988
 L 35.9501,-0.676178 L 36.0035,-0.547226 L 36.0455,-0.414108 L 36.0757,-0.277832 L 36.0939,-0.139435 L 36.1,-0
 L 36.0939,0.139435 L 36.0757,0.277832 L 36.0455,0.414108 L 36.0035,0.547226 L 35.9501,0.676178 L 35.8856,0.799988
 L 35.8106,0.917709 L 35.7257,1.02846 L 35.6314,1.13136 L 35.5285,1.22566 L 35.4177,1.31064 L 35.3,1.38564
 L 35.1762,1.45009 L 35.0472,1.50349 L 34.9141,1.54547 L 34.7778,1.57568 L 34.6394,1.5939 L 34.5,1.59999
 z
M -40.5871,0.996185 L -40.6736,0.984802 L -40.7588,0.965912 L -40.842,0.939682 L -40.9226,0.906296 L -41,0.866013
 L -41.0736,0.819138 L -41.1428,0.766037 L -41.2071,0.707092 L -41.266,0.642776 L -41.3191,0.573563 L -41.366,0.5
 L -41.4063,0.422607 L -41.4397,0.34201 L -41.4659,0.258804 L -41.4848,0.173645 L -41.4962,0.0871429 L -41.5,-0
 L -41.4962,-0.0871429 L -41.4848,-0.173645 L -41.4659,-0.258804 L -41.4397,-0.34201 L -41.4063,-0.422607 L -41.366,-0.5
 L -41.3191,-0.573563 L -41.266,-0.642776 L -41.2071,-0.707092 L -41.1428,-0.766037 L -41.0736,-0.819138 L -41,-0.866013
 L -40.9226,-0.906296 L -40.842,-0.939682 L -40.7588,-0.965912 L -40.6736,-0.984802 L -40.5871,-0.996185 L -40.5,-1
 L -40.4128,-0.996185 L -40.3263,-0.984802 L -40.2412,-0.965912 L -40.158,-0.939682 L -40.0774,-0.906296 L -40,-0.866013
 L -39.9264,-0.819138 L -39.8572,-0.766037 L -39.7929,-0.707092 L -39.7339,-0.642776 L -39.6808,-0.573563 L -39.634,-0.5
 L -39.5937,-0.422607 L -39.5603,-0.34201 L -39.5341,-0.258804 L -39.5152,-0.173645 L -39.5038,-0.0871429 L -39.5,-0
 L -39.5038,0.0871429 L -39.5152,0.173645 L -39.5341,0.258804 L -39.5603,0.34201 L -39.5937,0.422607 L -39.634,0.5
 L -39.6808,0.573563 L -39.7339,0.642776 L -39.7929,0.707092 L -39.8572,0.766037 L -39.9264,0.819138 L -40,0.866013
 L -40.0774,0.906296 L -40.158,0.939682 L -40.2412,0.965912 L -40.3263,0.984802 L -40.4128,0.996185 L -40.5,1
 z
M 40.4128,0.996185 L 40.3263,0.984802 L 40.2412,0.965912 L 40.158,0.939682 L 40.0774,0.906296 L 40,0.866013
 L 39.9264,0.819138 L 39.8572,0.766037 L 39.7929,0.707092 L 39.7339,0.642776 L 39.6808,0.573563 L 39.634,0.5
 L 39.5937,0.422607 L 39.5603,0.34201 L 39.5341,0.258804 L 39.5152,0.173645 L 39.5038,0.0871429 L 39.5,-0
 L 39.5038,-0.0871429 L 39.5152,-0.173645 L 39.5341,-0.258804 L 39.5603,-0.34201 L 39.5937,-0.422607 L 39.634,-0.5
 L 39.6808,-0.573563 L 39.7339,-0.642776 L 39.7929,-0.707092 L 39.8572,-0.766037 L 39.9264,-0.819138 L 40,-0.866013
 L 40.0774,-0.906296 L 40.158,-0.939682 L 40.2412,-0.965912 L 40.3263,-0.984802 L 40.4128,-0.996185 L 40.5,-1
 L 40.5871,-0.996185 L 40.6736,-0.984802 L 40.7588,-0.965912 L 40.842,-0.939682 L 40.9226,-0.906296 L 41,-0.866013
 L 41.0736,-0.819138 L 41.1428,-0.766037 L 41.2071,-0.707092 L 41.266,-0.642776 L 41.3191,-0.573563 L 41.366,-0.5
 L 41.4063,-0.422607 L 41.4397,-0.34201 L 41.4659,-0.258804 L 41.4848,-0.173645 L 41.4962,-0.0871429 L 41.5,-0
 L 41.4962,0.0871429 L 41.4848,0.173645 L 41.4659,0.258804 L 41.4397,0.34201 L 41.4063,0.422607 L 41.366,0.5
 L 41.3191,0.573563 L 41.266,0.642776 L 41.2071,0.707092 L 41.1428,0.766037 L 41.0736,0.819138 L 41,0.866013
 L 40.9226,0.906296 L 40.842,0.939682 L 40.7588,0.965912 L 40.6736,0.984802 L 40.5871,0.996185 L 40.5,1
 z
M 40.4128,26.3962 L 40.3263,26.3848 L 40.2412,26.3659 L 40.158,26.3397 L 40.0774,26.3063 L 40,26.266
 L 39.9264,26.2191 L 39.8572,26.166 L 39.7929,26.1071 L 39.7339,26.0428 L 39.6808,25.9736 L 39.634,25.9
 L 39.5937,25.8226 L 39.5603,25.742 L 39.5341,25.6588 L 39.5152,25.5736 L 39.5038,25.4872 L 39.5,25.4
 L 39.5038,25.3128 L 39.5152,25.2263 L 39.5341,25.1412 L 39.5603,25.058 L 39.5937,24.9774 L 39.634,24.9
 L 39.6808,24.8264 L 39.7339,24.7572 L 39.7929,24.6929 L 39.8572,24.6339 L 39.9264,24.5808 L 40,24.534
 L 40.0774,24.4937 L 40.158,24.4603 L 40.2412,24.4341 L 40.3263,24.4152 L 40.4128,24.4038 L 40.5,24.4
 L 40.5871,24.4038 L 40.6736,24.4152 L 40.7588,24.4341 L 40.842,24.4603 L 40.9226,24.4937 L 41,24.534
 L 41.0736,24.5808 L 41.1428,24.6339 L 41.2071,24.6929 L 41.266,24.7572 L 41.3191,24.8264 L 41.366,24.9
 L 41.4063,24.9774 L 41.4397,25.058 L 41.4659,25.1412 L 41.4848,25.2263 L 41.4962,25.3128 L 41.5,25.4
 L 41.4962,25.4872 L 41.4848,25.5736 L 41.4659,25.6588 L 41.4397,25.742 L 41.4063,25.8226 L 41.366,25.9
 L 41.3191,25.9736 L 41.266,26.0428 L 41.2071,26.1071 L 41.1428,26.166 L 41.0736,26.2191 L 41,26.266
 L 40.9226,26.3063 L 40.842,26.3397 L 40.7588,26.3659 L 40.6736,26.3848 L 40.5871,26.3962 L 40.5,26.4
 z
M -40.5871,26.3962 L -40.6736,26.3848 L -40.7588,26.3659 L -40.842,26.3397 L -40.9226,26.3063 L -41,26.266
 L -41.0736,26.2191 L -41.1428,26.166 L -41.2071,26.1071 L -41.266,26.0428 L -41.3191,25.9736 L -41.366,25.9
 L -41.4063,25.8226 L -41.4397,25.742 L -41.4659,25.6588 L -41.4848,25.5736 L -41.4962,25.4872 L -41.5,25.4
 L -41.4962,25.3128 L -41.4848,25.2263 L -41.4659,25.1412 L -41.4397,25.058 L -41.4063,24.9774 L -41.366,24.9
 L -41.3191,24.8264 L -41.266,24.7572 L -41.2071,24.6929 L -41.1428,24.6339 L -41.0736,24.5808 L -41,24.534
 L -40.9226,24.4937 L -40.842,24.4603 L -40.7588,24.4341 L -40.6736,24.4152 L -40.5871,24.4038 L -40.5,24.4
 L -40.4128,24.4038 L -40.3263,24.4152 L -40.2412,24.4341 L -40.158,24.4603 L -40.0774,24.4937 L -40,24.534
 L -39.9264,24.5808 L -39.8572,24.6339 L -39.7929,24.6929 L -39.7339,24.7572 L -39.6808,24.8264 L -39.634,24.9
 L -39.5937,24.9774 L -39.5603,25.058 L -39.5341,25.1412 L -39.5152,25.2263 L -39.5038,25.3128 L -39.5,25.4
 L -39.5038,25.4872 L -39.5152,25.5736 L -39.5341,25.6588 L -39.5603,25.742 L -39.5937,25.8226 L -39.634,25.9
 L -39.6808,25.9736 L -39.7339,26.0428 L -39.7929,26.1071 L -39.8572,26.166 L -39.9264,26.2191 L -40,26.266
 L -40.0774,26.3063 L -40.158,26.3397 L -40.2412,26.3659 L -40.3263,26.3848 L -40.4128,26.3962 L -40.5,26.4
 z
M 34.4128,37.9962 L 34.3263,37.9848 L 34.2412,37.9659 L 34.158,37.9397 L 34.0774,37.9063 L 34,37.866
 L 33.9264,37.8191 L 33.8572,37.766 L 33.7929,37.7071 L 33.7339,37.6428 L 33.6808,37.5736 L 33.634,37.5
 L 33.5937,37.4226 L 33.5603,37.342 L 33.5341,37.2588 L 33.5152,37.1736 L 33.5038,37.0871 L 33.5,37
 L 33.5038,36.9128 L 33.5152,36.8263 L 33.5341,36.7412 L 33.5603,36.658 L 33.5937,36.5774 L 33.634,36.5
 L 33.6808,36.4264 L 33.7339,36.3572 L 33.7929,36.2929 L 33.8572,36.2339 L 33.9264,36.1808 L 34,36.134
 L 34.0774,36.0937 L 34.158,36.0603 L 34.2412,36.0341 L 34.3263,36.0152 L 34.4128,36.0038 L 34.5,36
 L 34.5871,36.0038 L 34.6736,36.0152 L 34.7588,36.0341 L 34.842,36.0603 L 34.9226,36.0937 L 35,36.134
 L 35.0736,36.1808 L 35.1428,36.2339 L 35.2071,36.2929 L 35.266,36.3572 L 35.3191,36.4264 L 35.366,36.5
 L 35.4063,36.5774 L 35.4397,36.658 L 35.4659,36.7412 L 35.4848,36.8263 L 35.4962,36.9128 L 35.5,37
 L 35.4962,37.0871 L 35.4848,37.1736 L 35.4659,37.2588 L 35.4397,37.342 L 35.4063,37.4226 L 35.366,37.5
 L 35.3191,37.5736 L 35.266,37.6428 L 35.2071,37.7071 L 35.1428,37.766 L 35.0736,37.8191 L 35,37.866
 L 34.9226,37.9063 L 34.842,37.9397 L 34.7588,37.9659 L 34.6736,37.9848 L 34.5871,37.9962 L 34.5,38
 z
M -34.5871,37.9962 L -34.6736,37.9848 L -34.7588,37.9659 L -34.842,37.9397 L -34.9226,37.9063 L -35,37.866
 L -35.0736,37.8191 L -35.1428,37.766 L -35.2071,37.7071 L -35.266,37.6428 L -35.3191,37.5736 L -35.366,37.5
 L -35.4063,37.4226 L -35.4397,37.342 L -35.4659,37.2588 L -35.4848,37.1736 L -35.4962,37.0871 L -35.5,37
 L -35.4962,36.9128 L -35.4848,36.8263 L -35.4659,36.7412 L -35.4397,36.658 L -35.4063,36.5774 L -35.366,36.5
 L -35.3191,36.4264 L -35.266,36.3572 L -35.2071,36.2929 L -35.1428,36.2339 L -35.0736,36.1808 L -35,36.134
 L -34.9226,36.0937 L -34.842,36.0603 L -34.7588,36.0341 L -34.6736,36.0152 L -34.5871,36.0038 L -34.5,36
 L -34.4128,36.0038 L -34.3263,36.0152 L -34.2412,36.0341 L -34.158,36.0603 L -34.0774,36.0937 L -34,36.134
 L -33.9264,36.1808 L -33.8572,36.2339 L -33.7929,36.2929 L -33.7339,36.3572 L -33.6808,36.4264 L -33.634,36.5
 L -33.5937,36.5774 L -33.5603,36.658 L -33.5341,36.7412 L -33.5152,36.8263 L -33.5038,36.9128 L -33.5,37
 L -33.5038,37.0871 L -33.5152,37.1736 L -33.5341,37.2588 L -33.5603,37.342 L -33.5937,37.4226 L -33.634,37.5
 L -33.6808,37.5736 L -33.7339,37.6428 L -33.7929,37.7071 L -33.8572,37.766 L -33.9264,37.8191 L -34,37.866
 L -34.0774,37.9063 L -34.158,37.9397 L -34.2412,37.9659 L -34.3263,37.9848 L -34.4128,37.9962 L -34.5,38
 z
M 79.8693,41.4943 L 79.7395,41.4772 L 79.6118,41.4489 L 79.487,41.4095 L 79.3661,41.3595 L 79.25,41.299
 L 79.1396,41.2287 L 79.0358,41.1491 L 78.9393,41.0607 L 78.8509,40.9642 L 78.7713,40.8604 L 78.701,40.75
 L 78.6405,40.6339 L 78.5905,40.513 L 78.5511,40.3882 L 78.5228,40.2605 L 78.5057,40.1307 L 78.5,40
 L 78.5057,39.8693 L 78.5228,39.7395 L 78.5511,39.6118 L 78.5905,39.487 L 78.6405,39.3661 L 78.701,39.25
 L 78.7713,39.1396 L 78.8509,39.0358 L 78.9393,38.9393 L 79.0358,38.8509 L 79.1396,38.7713 L 79.25,38.701
 L 79.3661,38.6405 L 79.487,38.5905 L 79.6118,38.5511 L 79.7395,38.5228 L 79.8693,38.5057 L 80,38.5
 L 80.1307,38.5057 L 80.2605,38.5228 L 80.3882,38.5511 L 80.513,38.5905 L 80.6339,38.6405 L 80.75,38.701
 L 80.8604,38.7713 L 80.9642,38.8509 L 81.0607,38.9393 L 81.1491,39.0358 L 81.2287,39.1396 L 81.299,39.25
 L 81.3595,39.3661 L 81.4095,39.487 L 81.4489,39.6118 L 81.4772,39.7395 L 81.4943,39.8693 L 81.5,40
 L 81.4943,40.1307 L 81.4772,40.2605 L 81.4489,40.3882 L 81.4095,40.513 L 81.3595,40.6339 L 81.299,40.75
 L 81.2287,40.8604 L 81.1491,40.9642 L 81.0607,41.0607 L 80.9642,41.1491 L 80.8604,41.2287 L 80.75,41.299
 L 80.6339,41.3595 L 80.513,41.4095 L 80.3882,41.4489 L 80.2605,41.4772 L 80.1307,41.4943 L 80,41.5
 z
M -80.1307,41.4943 L -80.2605,41.4772 L -80.3882,41.4489 L -80.513,41.4095 L -80.6339,41.3595 L -80.75,41.299
 L -80.8604,41.2287 L -80.9642,41.1491 L -81.0607,41.0607 L -81.1491,40.9642 L -81.2287,40.8604 L -81.299,40.75
 L -81.3595,40.6339 L -81.4095,40.513 L -81.4489,40.3882 L -81.4772,40.2605 L -81.4943,40.1307 L -81.5,40
 L -81.4943,39.8693 L -81.4772,39.7395 L -81.4489,39.6118 L -81.4095,39.487 L -81.3595,39.3661 L -81.299,39.25
 L -81.2287,39.1396 L -81.1491,39.0358 L -81.0607,38.9393 L -80.9642,38.8509 L -80.8604,38.7713 L -80.75,38.701
 L -80.6339,38.6405 L -80.513,38.5905 L -80.3882,38.5511 L -80.2605,38.5228 L -80.1307,38.5057 L -80,38.5
 L -79.8693,38.5057 L -79.7395,38.5228 L -79.6118,38.5511 L -79.487,38.5905 L -79.3661,38.6405 L -79.25,38.701
 L -79.1396,38.7713 L -79.0358,38.8509 L -78.9393,38.9393 L -78.8509,39.0358 L -78.7713,39.1396 L -78.701,39.25
 L -78.6405,39.3661 L -78.5905,39.487 L -78.5511,39.6118 L -78.5228,39.7395 L -78.5057,39.8693 L -78.5,40
 L -78.5057,40.1307 L -78.5228,40.2605 L -78.5511,40.3882 L -78.5905,40.513 L -78.6405,40.6339 L -78.701,40.75
 L -78.7713,40.8604 L -78.8509,40.9642 L -78.9393,41.0607 L -79.0358,41.1491 L -79.1396,41.2287 L -79.25,41.299
 L -79.3661,41.3595 L -79.487,41.4095 L -79.6118,41.4489 L -79.7395,41.4772 L -79.8693,41.4943 L -80,41.5
 z
M 33.4128,46.9962 L 33.3263,46.9848 L 33.2412,46.9659 L 33.158,46.9397 L 33.0774,46.9063 L 33,46.866
 L 32.9264,46.8191 L 32.8572,46.766 L 32.7929,46.7071 L 32.7339,46.6428 L 32.6808,46.5736 L 32.634,46.5
 L 32.5937,46.4226 L 32.5603,46.342 L 32.5341,46.2588 L 32.5152,46.1736 L 32.5038,46.0871 L 32.5,46
 L 32.5038,45.9128 L 32.5152,45.8263 L 32.5341,45.7412 L 32.5603,45.658 L 32.5937,45.5774 L 32.634,45.5
 L 32.6808,45.4264 L 32.7339,45.3572 L 32.7929,45.2929 L 32.8572,45.2339 L 32.9264,45.1808 L 33,45.134
 L 33.0774,45.0937 L 33.158,45.0603 L 33.2412,45.0341 L 33.3263,45.0152 L 33.4128,45.0038 L 33.5,45
 L 33.5871,45.0038 L 33.6736,45.0152 L 33.7588,45.0341 L 33.842,45.0603 L 33.9226,45.0937 L 34,45.134
 L 34.0736,45.1808 L 34.1428,45.2339 L 34.2071,45.2929 L 34.266,45.3572 L 34.3191,45.4264 L 34.366,45.5
 L 34.4063,45.5774 L 34.4397,45.658 L 34.4659,45.7412 L 34.4848,45.8263 L 34.4962,45.9128 L 34.5,46
 L 34.4962,46.0871 L 34.4848,46.1736 L 34.4659,46.2588 L 34.4397,46.342 L 34.4063,46.4226 L 34.366,46.5
 L 34.3191,46.5736 L 34.266,46.6428 L 34.2071,46.7071 L 34.1428,46.766 L 34.0736,46.8191 L 34,46.866
 L 33.9226,46.9063 L 33.842,46.9397 L 33.7588,46.9659 L 33.6736,46.9848 L 33.5871,46.9962 L 33.5,47
 z
M -33.5871,46.9962 L -33.6736,46.9848 L -33.7588,46.9659 L -33.842,46.9397 L -33.9226,46.9063 L -34,46.866
 L -34.0736,46.8191 L -34.1428,46.766 L -34.2071,46.7071 L -34.266,46.6428 L -34.3191,46.5736 L -34.366,46.5
 L -34.4063,46.4226 L -34.4397,46.342 L -34.4659,46.2588 L -34.4848,46.1736 L -34.4962,46.0871 L -34.5,46
 L -34.4962,45.9128 L -34.4848,45.8263 L -34.4659,45.7412 L -34.4397,45.658 L -34.4063,45.5774 L -34.366,45.5
 L -34.3191,45.4264 L -34.266,45.3572 L -34.2071,45.2929 L -34.1428,45.2339 L -34.0736,45.1808 L -34,45.134
 L -33.9226,45.0937 L -33.842,45.0603 L -33.7588,45.0341 L -33.6736,45.0152 L -33.5871,45.0038 L -33.5,45
 L -33.4128,45.0038 L -33.3263,45.0152 L -33.2412,45.0341 L -33.158,45.0603 L -33.0774,45.0937 L -33,45.134
 L -32.9264,45.1808 L -32.8572,45.2339 L -32.7929,45.2929 L -32.7339,45.3572 L -32.6808,45.4264 L -32.634,45.5
 L -32.5937,45.5774 L -32.5603,45.658 L -32.5341,45.7412 L -32.5152,45.8263 L -32.5038,45.9128 L -32.5,46
 L -32.5038,46.0871 L -32.5152,46.1736 L -32.5341,46.2588 L -32.5603,46.342 L -32.5937,46.4226 L -32.634,46.5
 L -32.6808,46.5736 L -32.7339,46.6428 L -32.7929,46.7071 L -32.8572,46.766 L -32.9264,46.8191 L -33,46.866
 L -33.0774,46.9063 L -33.158,46.9397 L -33.2412,46.9659 L -33.3263,46.9848 L -33.4128,46.9962 L -33.5,47
 z
M -0.139435,48.5939 L -0.277832,48.5757 L -0.414108,48.5455 L -0.547226,48.5035 L -0.676178,48.4501 L -0.799988,48.3856
 L -0.917709,48.3106 L -1.02846,48.2257 L -1.13136,48.1314 L -1.22566,48.0285 L -1.31064,47.9177 L -1.38564,47.8
 L -1.45009,47.6762 L -1.50349,47.5472 L -1.54547,47.4141 L -1.57568,47.2778 L -1.5939,47.1394 L -1.59999,47
 L -1.5939,46.8605 L -1.57568,46.7222 L -1.54547,46.5859 L -1.50349,46.4528 L -1.45009,46.3238 L -1.38564,46.2
 L -1.31064,46.0823 L -1.22566,45.9715 L -1.13136,45.8686 L -1.02846,45.7743 L -0.917709,45.6893 L -0.799988,45.6143
 L -0.676178,45.5499 L -0.547226,45.4965 L -0.414108,45.4545 L -0.277832,45.4243 L -0.139435,45.4061 L 0,45.4
 L 0.139435,45.4061 L 0.277832,45.4243 L 0.414108,45.4545 L 0.547226,45.4965 L 0.676178,45.5499 L 0.799988,45.6143
 L 0.917709,45.6893 L 1.02846,45.7743 L 1.13136,45.8686 L 1.22566,45.9715 L 1.31064,46.0823 L 1.38564,46.2
 L 1.45009,46.3238 L 1.50349,46.4528 L 1.54547,46.5859 L 1.57568,46.7222 L 1.5939,46.8605 L 1.59999,47
 L 1.5939,47.1394 L 1.57568,47.2778 L 1.54547,47.4141 L 1.50349,47.5472 L 1.45009,47.6762 L 1.38564,47.8
 L 1.31064,47.9177 L 1.22566,48.0285 L 1.13136,48.1314 L 1.02846,48.2257 L 0.917709,48.3106 L 0.799988,48.3856
 L 0.676178,48.4501 L 0.547226,48.5035 L 0.414108,48.5455 L 0.277832,48.5757 L 0.139435,48.5939 L 0,48.6
 z
M -35.5,51 L -35.5,50 L 35.5,50 L 35.5,51 z
M -80.2179,72.4905 L -80.4341,72.462 L -80.647,72.4148 L -80.855,72.3492 L -81.0565,72.2658 L -81.25,72.1651
 L -81.4339,72.0479 L -81.607,71.9151 L -81.7678,71.7678 L -81.9151,71.607 L -82.0479,71.4339 L -82.1651,71.25
 L -82.2658,71.0565 L -82.3492,70.855 L -82.4148,70.647 L -82.462,70.4341 L -82.4905,70.2179 L -82.5,70
 L -82.4905,69.7821 L -82.462,69.5659 L -82.4148,69.353 L -82.3492,69.1449 L -82.2658,68.9435 L -82.1651,68.75
 L -82.0479,68.5661 L -81.9151,68.393 L -81.7678,68.2322 L -81.607,68.0849 L -81.4339,67.9521 L -81.25,67.8349
 L -81.0565,67.7342 L -80.855,67.6508 L -80.647,67.5852 L -80.4341,67.538 L -80.2179,67.5095 L -80,67.5
 L -79.7821,67.5095 L -79.5659,67.538 L -79.353,67.5852 L -79.1449,67.6508 L -78.9435,67.7342 L -78.75,67.8349
 L -78.5661,67.9521 L -78.393,68.0849 L -78.2322,68.2322 L -78.0849,68.393 L -77.9521,68.5661 L -77.8349,68.75
 L -77.7342,68.9435 L -77.6508,69.1449 L -77.5852,69.353 L -77.538,69.5659 L -77.5095,69.7821 L -77.5,70
 L -77.5095,70.2179 L -77.538,70.4341 L -77.5852,70.647 L -77.6508,70.855 L -77.7342,71.0565 L -77.8349,71.25
 L -77.9521,71.4339 L -78.0849,71.607 L -78.2322,71.7678 L -78.393,71.9151 L -78.5661,72.0479 L -78.75,72.1651
 L -78.9435,72.2658 L -79.1449,72.3492 L -79.353,72.4148 L -79.5659,72.462 L -79.7821,72.4905 L -80,72.5
 z
M 79.7821,72.4905 L 79.5659,72.462 L 79.353,72.4148 L 79.1449,72.3492 L 78.9435,72.2658 L 78.75,72.1651
 L 78.5661,72.0479 L 78.393,71.9151 L 78.2322,71.7678 L 78.0849,71.607 L 77.9521,71.4339 L 77.8349,71.25
 L 77.7342,71.0565 L 77.6508,70.855 L 77.5852,70.647 L 77.538,70.4341 L 77.5095,70.2179 L 77.5,70
 L 77.5095,69.7821 L 77.538,69.5659 L 77.5852,69.353 L 77.6508,69.1449 L 77.7342,68.9435 L 77.8349,68.75
 L 77.9521,68.5661 L 78.0849,68.393 L 78.2322,68.2322 L 78.393,68.0849 L 78.5661,67.9521 L 78.75,67.8349
 L 78.9435,67.7342 L 79.1449,67.6508 L 79.353,67.5852 L 79.5659,67.538 L 79.7821,67.5095 L 80,67.5
 L 80.2179,67.5095 L 80.4341,67.538 L 80.647,67.5852 L 80.855,67.6508 L 81.0565,67.7342 L 81.25,67.8349
 L 81.4339,67.9521 L 81.607,68.0849 L 81.7678,68.2322 L 81.9151,68.393 L 82.0479,68.5661 L 82.1651,68.75
 L 82.2658,68.9435 L 82.3492,69.1449 L 82.4148,69.353 L 82.462,69.5659 L 82.4905,69.7821 L 82.5,70
 L 82.4905,70.2179 L 82.462,70.4341 L 82.4148,70.647 L 82.3492,70.855 L 82.2658,71.0565 L 82.1651,71.25
 L 82.0479,71.4339 L 81.9151,71.607 L 81.7678,71.7678 L 81.607,71.9151 L 81.4339,72.0479 L 81.25,72.1651
 L 81.0565,72.2658 L 80.855,72.3492 L 80.647,72.4148 L 80.4341,72.462 L 80.2179,72.4905 L 80,72.5
 z
" stroke="black" fill="lightgray" stroke-width="0.5"/>
</svg>
